<?xml version="1.0" encoding="UTF-8"?>
<svg xmlns="http://www.w3.org/2000/svg" viewBox="0 0 64 64" width="64" height="64">
  <rect width="64" height="64" rx="10" fill="#243447"/>
  <g fill="#f0a830" stroke="#243447" stroke-width="2" stroke-linejoin="round">
    <!-- center -->
    <polygon points="32,22 39.5,26.3 39.5,34.9 32,39.2 24.5,34.9 24.5,26.3"/>
    <!-- top-left / top-right -->
    <polygon points="20.5,15.4 28,19.7 28,28.3 20.5,32.6 13,28.3 13,19.7"/>
    <polygon points="43.5,15.4 51,19.7 51,28.3 43.5,32.6 36,28.3 36,19.7"/>
    <!-- bottom-left / bottom-right -->
    <polygon points="20.5,32.6 28,36.9 28,45.5 20.5,49.8 13,45.5 13,36.9"/>
    <polygon points="43.5,32.6 51,36.9 51,45.5 43.5,49.8 36,45.5 36,36.9"/>
    <!-- bottom center -->
    <polygon points="32,42.5 39.5,46.8 39.5,55.4 32,59.7 24.5,55.4 24.5,46.8"/>
  </g>
</svg>
