<svg width="64" height="64" viewBox="0 0 64 64" fill="none" xmlns="http://www.w3.org/2000/svg">
<g clip-path="url(#clip0_14943_308688)">
<rect width="64" height="64" rx="12" fill="url(#paint0_linear_14943_308688)"/>
<g clip-path="url(#clip1_14943_308688)">
<path d="M20.5574 14C20.8865 13.81 21.2909 13.8305 21.5795 14.0103L29.3846 18.6493L29.8205 19.0442L29.9446 19.6192L30.0595 28.6981C30.0709 29.0379 29.8865 29.3985 29.5574 29.5885L21.7631 34.0885C21.434 34.2785 21.0296 34.2579 20.741 34.0781L12.9359 29.4392L12.5 29.0442L12.3759 28.4693L12.261 19.3903C12.2496 19.0505 12.434 18.69 12.7631 18.5L20.5574 14ZM31.5574 33.0526C31.8865 32.8626 32.2909 32.8831 32.5795 33.0629L40.3846 37.7018L40.8205 38.0968L40.9446 38.6718L41.0595 47.7507C41.0709 48.0905 40.8865 48.451 40.5574 48.641L32.7631 53.141C32.434 53.331 32.0296 53.3105 31.741 53.1307L23.9359 48.4918L23.5 48.0968L23.3759 47.5218L23.261 38.4429C23.2496 38.1031 23.434 37.7426 23.7631 37.5526L31.5574 33.0526ZM42.0788 14.2763C42.4079 14.0863 42.8124 14.1068 43.1009 14.2866L50.9061 18.9255L51.342 19.3205L51.4661 19.8955L51.5809 28.9744C51.5924 29.3142 51.4079 29.6747 51.0788 29.8647L43.2846 34.3647C42.9555 34.5547 42.5511 34.5342 42.2625 34.3544L34.4574 29.7155L34.0215 29.3205L33.8974 28.7455L33.7825 19.6666C33.7711 19.3268 33.9555 18.9663 34.2846 18.7763L42.0788 14.2763Z" fill="url(#paint1_linear_14943_308688)"/>
</g>
</g>
<defs>
<linearGradient id="paint0_linear_14943_308688" x1="32" y1="0" x2="32" y2="64" gradientUnits="userSpaceOnUse">
<stop stop-color="#DCE1F1"/>
<stop offset="1" stop-color="#C8D47D"/>
</linearGradient>
<linearGradient id="paint1_linear_14943_308688" x1="24.671" y1="11.625" x2="44.671" y2="46.266" gradientUnits="userSpaceOnUse">
<stop/>
<stop offset="1" stop-color="#666666"/>
</linearGradient>
<clipPath id="clip0_14943_308688">
<rect width="64" height="64" rx="12" fill="white"/>
</clipPath>
<clipPath id="clip1_14943_308688">
<rect width="48" height="48" fill="white" transform="translate(2 20) rotate(-30)"/>
</clipPath>
</defs>
</svg>
